<?xml version="1.0" standalone="no"?>
<!DOCTYPE svg PUBLIC "-//W3C//DTD SVG 20010904//EN"
 "http://www.w3.org/TR/2001/REC-SVG-20010904/DTD/svg10.dtd">
<svg version="1.0" xmlns="http://www.w3.org/2000/svg"
 width="202.000000pt" height="32.000000pt" viewBox="0 0 202.000000 32.000000"
 preserveAspectRatio="xMidYMid meet">
<metadata>
Created by potrace 1.10, written by Peter Selinger 2001-2011
</metadata>
<g transform="translate(0.000000,32.000000) scale(0.100000,-0.100000)"
fill="#ffffff" stroke="none">
<path d="M971 307 c-18 -18 -13 -29 9 -17 15 8 25 8 39 -2 18 -13 21 -17 21
-40 0 -7 5 -5 11 5 13 22 -1 41 -40 55 -20 7 -32 7 -40 -1z"/>
<path d="M971 218 c-19 -31 -13 -38 34 -38 48 0 53 5 31 35 -18 24 -50 26 -65
3z"/>
<path d="M47 190 c-62 -49 -36 -180 35 -180 17 0 19 3 10 12 -15 15 -17 168
-2 168 6 0 10 5 10 10 0 16 -26 11 -53 -10z m8 -47 c-4 -10 -7 -31 -6 -46 1
-17 -3 -26 -9 -22 -14 9 -13 53 3 70 16 19 21 18 12 -2z"/>
<path d="M112 201 c17 -32 44 -71 51 -71 4 0 7 17 7 38 0 36 -2 39 -30 39 -17
0 -29 -3 -28 -6z"/>
<path d="M247 203 c-3 -5 0 -34 8 -65 12 -54 12 -56 -9 -63 -20 -7 -20 -7 4
-14 18 -5 24 -14 23 -29 -3 -20 2 -22 42 -22 40 0 44 2 35 18 -6 9 -18 53 -28
97 -16 74 -20 80 -44 83 -14 2 -28 -1 -31 -5z m46 -60 c4 -18 2 -35 -3 -38 -6
-3 -10 4 -11 17 0 13 -2 33 -3 46 -4 33 10 13 17 -25z m17 -91 l0 -27 -14 25
c-13 26 -11 44 5 35 5 -4 9 -18 9 -33z"/>
<path d="M375 110 l0 -100 38 0 37 0 0 90 c0 57 4 90 11 90 5 0 7 5 4 10 -3 6
-25 10 -48 10 l-42 0 0 -100z m54 -5 c-1 -41 -6 -75 -11 -75 -5 0 -8 34 -7 75
1 41 6 75 11 75 5 0 8 -34 7 -75z"/>
<path d="M535 110 l0 -100 33 0 32 0 0 90 c0 53 4 90 10 90 6 0 10 5 10 10 0
6 -19 10 -42 10 l-43 0 0 -100z m45 10 c0 -5 -4 -10 -10 -10 -5 0 -10 5 -10
10 0 6 5 10 10 10 6 0 10 -4 10 -10z"/>
<path d="M790 200 c0 -5 5 -10 10 -10 6 0 10 -33 10 -80 0 -47 -4 -80 -10 -80
-5 0 -10 -4 -10 -10 0 -5 18 -10 40 -10 l40 0 0 90 c0 53 4 90 10 90 6 0 10 5
10 10 0 6 -22 10 -50 10 -27 0 -50 -4 -50 -10z m57 -78 c0 -30 -3 -65 -7 -76
-6 -14 -9 7 -9 63 -1 92 13 104 16 13z"/>
<path d="M1105 110 l0 -100 40 0 40 0 0 100 0 100 -40 0 -40 0 0 -100z m45 60
c0 -11 -4 -20 -9 -20 -7 0 -8 17 -2 38 4 10 11 -2 11 -18z m9 -98 c1 -8 -4
-12 -11 -10 -12 4 -19 47 -10 63 6 9 19 -24 21 -53z"/>
<path d="M1210 201 c0 -5 5 -11 12 -13 8 -3 5 -16 -11 -42 -19 -30 -22 -44
-15 -74 4 -20 6 -43 5 -49 -1 -9 13 -13 44 -13 44 0 53 6 37 26 -5 5 -19 34
-31 64 l-22 55 25 22 c34 29 33 33 -9 33 -19 0 -35 -4 -35 -9z m26 -132 c7
-21 9 -39 5 -39 -9 0 -31 51 -31 74 0 28 13 11 26 -35z"/>
<path d="M1310 200 c0 -5 5 -10 10 -10 6 0 10 -33 10 -80 0 -47 -4 -80 -10
-80 -5 0 -10 -4 -10 -10 0 -5 19 -10 43 -10 l42 0 0 100 0 100 -42 0 c-24 0
-43 -4 -43 -10z m60 -90 c0 -5 -2 -10 -4 -10 -3 0 -8 5 -11 10 -3 6 -1 10 4
10 6 0 11 -4 11 -10z m0 -40 c0 -5 -4 -10 -10 -10 -5 0 -10 5 -10 10 0 6 5 10
10 10 6 0 10 -4 10 -10z"/>
<path d="M1410 200 c0 -5 5 -10 10 -10 6 0 10 -16 10 -35 0 -24 -5 -35 -15
-35 -8 0 -15 -4 -15 -10 0 -5 7 -7 15 -4 12 5 15 -3 15 -35 0 -23 -4 -41 -10
-41 -5 0 -10 -4 -10 -10 0 -5 19 -10 43 -10 l42 0 0 100 0 100 -42 0 c-24 0
-43 -4 -43 -10z m60 -36 c0 -14 -4 -23 -9 -20 -7 5 -8 23 -2 44 4 12 11 -3 11
-24z m0 -90 c0 -28 -4 -43 -10 -39 -12 7 -9 85 3 85 4 0 7 -21 7 -46z"/>
<path d="M1588 204 c-3 -3 -2 -20 2 -37 20 -81 21 -87 5 -87 -8 0 -15 -4 -15
-10 0 -5 9 -10 21 -10 18 0 20 -4 15 -25 -6 -24 -4 -25 39 -25 44 0 53 6 37
26 -5 5 -17 46 -27 92 -17 78 -20 82 -45 82 -15 0 -29 -3 -32 -6z m53 -66 c13
-48 21 -113 13 -105 -3 3 -6 9 -6 14 0 4 -4 13 -8 18 -9 11 -23 115 -15 115 2
0 9 -19 16 -42z"/>
<path d="M1710 200 c0 -5 5 -10 10 -10 6 0 10 -33 10 -80 0 -47 -4 -80 -10
-80 -5 0 -10 -4 -10 -10 0 -5 19 -10 43 -10 l42 0 0 100 0 100 -42 0 c-24 0
-43 -4 -43 -10z m60 -99 c0 -33 -4 -62 -9 -65 -5 -4 -9 23 -9 59 0 36 4 65 9
65 5 0 9 -27 9 -59z"/>
<path d="M1830 201 c0 -5 6 -11 12 -13 15 -5 12 -137 -3 -152 -16 -18 -10 -26
21 -26 34 0 37 5 15 26 -9 10 -15 34 -15 66 0 28 3 49 6 45 3 -3 23 -34 43
-69 25 -43 43 -64 59 -66 36 -5 28 45 -19 127 -40 69 -42 71 -80 71 -21 0 -39
-4 -39 -9z m105 -81 c27 -44 34 -70 12 -52 -20 17 -59 92 -48 92 6 0 22 -18
36 -40z"/>
<path d="M1950 200 c0 -5 5 -10 10 -10 6 0 10 -15 10 -32 0 -18 5 -40 10 -48
7 -11 10 -2 10 33 0 26 5 47 10 47 6 0 10 5 10 10 0 6 -13 10 -30 10 -16 0
-30 -4 -30 -10z"/>
<path d="M217 101 c-10 -39 -23 -71 -28 -71 -5 0 -9 -4 -9 -10 0 -5 12 -10 26
-10 20 0 24 4 19 19 -3 11 -1 39 6 64 6 25 9 53 7 62 -1 10 -11 -14 -21 -54z"/>
<path d="M960 160 c0 -5 18 -10 40 -10 22 0 40 5 40 10 0 6 -18 10 -40 10 -22
0 -40 -4 -40 -10z"/>
<path d="M1560 106 c-7 -32 -20 -64 -27 -71 -19 -20 -16 -25 17 -25 29 0 41
15 18 22 -9 3 -9 15 1 50 7 25 11 54 9 64 -2 11 -10 -7 -18 -40z"/>
<path d="M965 110 c-5 -23 -1 -39 15 -63 l22 -32 -6 48 c-4 36 -2 47 8 47 10
0 12 -12 9 -47 l-4 -48 21 37 c27 50 14 88 -29 88 -25 0 -30 -5 -36 -30z"/>
<path d="M492 55 c-6 -14 -16 -25 -22 -25 -5 0 -10 -4 -10 -10 0 -5 11 -10 25
-10 22 0 25 4 25 35 0 42 -3 43 -18 10z"/>
<path d="M648 55 c-6 -14 -15 -25 -20 -25 -4 0 -8 -4 -8 -10 0 -5 11 -10 25
-10 22 0 25 4 25 35 0 41 -6 44 -22 10z"/>
<path d="M912 55 c-6 -14 -16 -25 -22 -25 -5 0 -10 -4 -10 -10 0 -5 14 -10 30
-10 28 0 30 3 30 35 0 41 -12 45 -28 10z"/>
<path d="M132 42 c-24 -25 -23 -39 2 -29 18 7 39 44 29 50 -5 2 -18 -8 -31
-21z"/>
</g>
</svg>
